<svg xmlns="http://www.w3.org/2000/svg" width="18" height="18" viewBox="0 0 18 18">
  <g id="icon_repeat_m_black.d4a04a3a70e81ea13648c9e22cf37227" transform="translate(-3 -3)">
    <path id="Path_668" data-name="Path 668" d="M20,4H16V8h1V5.707l.646.646.218.2A8,8,0,0,1,12,20a8.113,8.113,0,0,1-1.045-.067l-.128.992A9.191,9.191,0,0,0,12,21,9,9,0,0,0,18.363,5.636L17.719,5H20V4Z" fill="#fff" fill-rule="evenodd"/>
    <path id="Path_669" data-name="Path 669" d="M3,12a8.94,8.94,0,0,0,2.637,6.364L6.281,19H4v1H8V16H7v2.293l-.646-.646-.218-.2A8,8,0,0,1,12,4a8.113,8.113,0,0,1,1.045.067l.129-.992A9.219,9.219,0,0,0,12,3a9.01,9.01,0,0,0-9,9Z" fill="#fff" fill-rule="evenodd"/>
  </g>
</svg>
